<svg width="16" height="9" viewBox="0 0 16 9" fill="none" xmlns="http://www.w3.org/2000/svg">
<path d="M0.816623 2.71114L7.90897 9.69961C7.9934 9.78256 8.08487 9.84145 8.18338 9.87629C8.28188 9.91113 8.38742 9.92827 8.5 9.92772C8.61258 9.92772 8.71812 9.91058 8.81662 9.87629C8.91513 9.84201 9.0066 9.78311 9.09103 9.69961L16.2045 2.71114C16.4015 2.51759 16.5 2.27566 16.5 1.98534C16.5 1.69501 16.3945 1.44617 16.1834 1.23879C15.9723 1.03142 15.726 0.927734 15.4446 0.927734C15.1631 0.927734 14.9169 1.03142 14.7058 1.23879L8.5 7.33556L2.2942 1.23879C2.09719 1.04524 1.8543 0.948471 1.56554 0.948471C1.27678 0.948471 1.02714 1.05216 0.816623 1.25953C0.605541 1.4669 0.5 1.70884 0.5 1.98534C0.5 2.26183 0.605541 2.50377 0.816623 2.71114Z" fill="white"/>
</svg>
