<svg width="16" height="9" viewBox="0 0 16 9" fill="none" xmlns="http://www.w3.org/2000/svg">
<path d="M0.816622 7.71659L7.90897 0.728123C7.9934 0.645173 8.08487 0.58628 8.18338 0.551441C8.28188 0.516602 8.38742 0.49946 8.5 0.500013C8.61258 0.500013 8.71812 0.517155 8.81662 0.551441C8.91513 0.585727 9.0066 0.64462 9.09103 0.728123L16.2045 7.71659C16.4015 7.91014 16.5 8.15208 16.5 8.4424C16.5 8.73272 16.3945 8.98157 16.1834 9.18894C15.9723 9.39631 15.726 9.5 15.4446 9.5C15.1631 9.5 14.9169 9.39631 14.7058 9.18894L8.5 3.09218L2.29419 9.18894C2.09718 9.38249 1.8543 9.47926 1.56554 9.47926C1.27678 9.47926 1.02714 9.37558 0.816622 9.1682C0.60554 8.96083 0.5 8.7189 0.5 8.4424C0.5 8.1659 0.60554 7.92396 0.816622 7.71659Z" fill="#78778A"/>
</svg>
