<svg width="17" height="10" viewBox="0 0 17 10" fill="none" xmlns="http://www.w3.org/2000/svg">
<path d="M0.816622 8.14433L7.90897 1.15586C7.9934 1.07291 8.08487 1.01401 8.18338 0.979175C8.28188 0.944337 8.38742 0.927194 8.5 0.927747C8.61258 0.927747 8.71812 0.94489 8.81662 0.979175C8.91513 1.01346 9.0066 1.07235 9.09103 1.15586L16.2045 8.14433C16.4015 8.33788 16.5 8.57981 16.5 8.87013C16.5 9.16045 16.3945 9.4093 16.1834 9.61668C15.9723 9.82405 15.726 9.92773 15.4446 9.92773C15.1631 9.92773 14.9169 9.82405 14.7058 9.61668L8.5 3.51991L2.29419 9.61667C2.09718 9.81022 1.8543 9.907 1.56554 9.907C1.27678 9.907 1.02714 9.80331 0.816622 9.59594C0.60554 9.38856 0.5 9.14663 0.5 8.87013C0.5 8.59363 0.60554 8.3517 0.816622 8.14433Z" fill="#78778A"/>
</svg>
